<svg width="33" height="33" viewBox="0 0 33 33" fill="none" xmlns="http://www.w3.org/2000/svg">
<g clip-path="url(#clip0_0_154)">
<path d="M16.3686 11.1603C16.3686 11.1603 15.5696 4.24851 7.08008 0.932617V11.1603H16.3686Z" fill="#F0F5FA"/>
<path d="M16.3691 11.1603C16.3691 11.1603 17.1682 4.24851 25.6577 0.932617V11.1603H16.3691Z" fill="#E4ECF2"/>
<path d="M16.471 11.1604C12.7641 4.53702 3.88307 2.50183 3.88307 2.50183L2.11914 4.29422L14.3256 12.4144L16.471 11.1604Z" fill="#E4ECF2"/>
<path d="M16.2656 11.1604C19.9725 4.53702 28.8536 2.50183 28.8536 2.50183L30.6175 4.29422L18.411 12.4145L16.2656 11.1604Z" fill="#F0F5FA"/>
<path d="M31.944 25.3908L19.496 32.3928C19.0668 32.6343 18.5364 32.3241 18.5364 31.8316L17.8926 21.6005L18.5364 11.5367C18.5364 11.3041 18.6619 11.0896 18.8646 10.9755L31.3126 3.97353C31.7418 3.73208 32.2722 4.04223 32.2722 4.53472V24.8295C32.2722 25.0622 32.1467 25.2768 31.944 25.3908Z" fill="#15C69B"/>
<path d="M31.3113 3.97365L29.6954 4.8826V24.8296C29.6954 25.0622 29.5699 25.2768 29.3673 25.3908L18.5352 31.4839V31.8316C18.5352 32.324 19.0655 32.6342 19.4947 32.3928L31.9427 25.3908C32.1455 25.2768 32.2709 25.0622 32.2709 24.8296V4.53478C32.2709 4.04235 31.7405 3.73221 31.3113 3.97365Z" fill="#1AA483"/>
<path d="M13.2411 32.3929L0.793021 25.3909C0.590268 25.2768 0.464844 25.0623 0.464844 24.8297V4.53484C0.464844 4.04241 0.995194 3.73226 1.42439 3.97365L13.8724 10.9757C14.0751 11.0897 14.2006 11.3042 14.2006 11.5368V31.8317C14.2006 32.3242 13.6703 32.6343 13.2411 32.3929Z" fill="#15C69B"/>
<path d="M13.8724 10.9757L1.42439 3.97371C0.995194 3.73226 0.464844 4.04241 0.464844 4.53484V4.88265L11.2969 10.9757C11.4997 11.0898 11.6251 11.3043 11.6251 11.5369V31.4839L13.241 32.3929C13.6702 32.6343 14.2006 32.3242 14.2006 31.8317L14.8444 21.6328L14.2006 11.5369C14.2006 11.3043 14.0751 11.0898 13.8724 10.9757Z" fill="#1AA483"/>
<path d="M29.911 12.4147L20.8966 17.5656V14.4525L29.911 9.30161V12.4147Z" fill="white"/>
<path d="M17.8927 32.9326H14.8451C14.4895 32.9326 14.2012 32.6443 14.2012 32.2887V11.8041C14.2012 11.4485 14.4895 11.1603 14.8451 11.1603H17.8927C18.2483 11.1603 18.5366 11.4485 18.5366 11.8041V32.2887C18.5366 32.6443 18.2483 32.9326 17.8927 32.9326Z" fill="#15C69B"/>
<path d="M17.8923 11.1603H15.7031C16.0587 11.1603 16.347 11.4485 16.347 11.8041V32.2887C16.347 32.6443 16.0587 32.9326 15.7031 32.9326H17.8923C18.2479 32.9326 18.5361 32.6443 18.5361 32.2887V11.8041C18.5361 11.4485 18.2479 11.1603 17.8923 11.1603Z" fill="#1AA483"/>
<path d="M14.2012 13.4063H18.5365V15.5525H14.2012V13.4063Z" fill="#FFDA45"/>
<path d="M14.2012 28.5404H18.5365V30.6866H14.2012V28.5404Z" fill="#FFDA45"/>
<path d="M16.3696 25.4267C16.1029 25.4267 15.8867 25.2106 15.8867 24.9438V19.149C15.8867 18.8823 16.1029 18.6661 16.3696 18.6661C16.6363 18.6661 16.8525 18.8823 16.8525 19.149V24.9438C16.8525 25.2105 16.6363 25.4267 16.3696 25.4267Z" fill="white"/>
</g>
<defs>
<clipPath id="clip0_0_154">
<rect width="32" height="32" fill="white" transform="translate(0.369141 0.932617)"/>
</clipPath>
</defs>
</svg>
