<svg width="33" height="33" viewBox="0 0 33 33" fill="none" xmlns="http://www.w3.org/2000/svg">
<g clip-path="url(#clip0_0_136)">
<path d="M16.3691 0.932617L8.36914 16.9326L16.3691 32.9326C25.2057 32.9326 32.3691 25.7692 32.3691 16.9326C32.3691 8.09606 25.2057 0.932617 16.3691 0.932617Z" fill="#14CFFF"/>
<path d="M0.369141 16.9326C0.369141 25.7692 7.53258 32.9326 16.3691 32.9326V0.932617C7.53258 0.932617 0.369141 8.09606 0.369141 16.9326Z" fill="#14CFFF"/>
<path d="M16.3691 4.68262L10.2441 16.9326L16.3691 29.1826C23.1346 29.1826 28.6191 23.6981 28.6191 16.9326C28.6191 10.1671 23.1346 4.68262 16.3691 4.68262Z" fill="#E4F5FF"/>
<path d="M4.11914 16.9326C4.11914 23.6981 9.60364 29.1826 16.3691 29.1826V4.68262C9.60364 4.68262 4.11914 10.1671 4.11914 16.9326Z" fill="#E4F5FF"/>
<path d="M15.4473 21.1512L15.4473 17.4013L14.5634 16.5174L13.5723 19.2763L13.5723 21.1512H15.4473Z" fill="#340D66"/>
<path d="M15.4472 10.8701L13.5722 10.8701L13.5722 19.2763L15.4472 17.4013L15.4472 10.8701Z" fill="#373E9F"/>
<path d="M21.7599 19.6757L17.1974 19.6756L14.4385 20.6667L15.3224 21.5506L21.7599 21.5506L21.7599 19.6757Z" fill="#373E9F"/>
<path d="M13.5694 19.6756L13.5694 21.5506L15.4443 21.5506L17.3193 19.6756L13.5694 19.6756Z" fill="#3857BC"/>
</g>
<defs>
<clipPath id="clip0_0_136">
<rect width="32" height="32" fill="white" transform="translate(0.369141 0.932617)"/>
</clipPath>
</defs>
</svg>
