<svg width="33" height="33" viewBox="0 0 33 33" fill="none" xmlns="http://www.w3.org/2000/svg">
<g clip-path="url(#clip0_1_300)">
<path d="M32.8627 18.3029C32.8247 17.9518 32.5973 17.6604 32.2694 17.5425C30.4887 16.9021 28.5105 17.0485 26.8377 17.9471L20.6951 21.5305L20.6705 21.5482C20.2433 21.9223 19.7129 22.1283 19.1769 22.1283H13.9748V20.8591H19.1769C19.9414 20.8591 20.3642 19.9394 20.3642 19.3036C20.3642 18.4707 19.8468 17.7731 19.2066 17.7486L13.7377 17.6874C11.7408 17.6655 10.5339 16.5159 8.51116 17.5524C6.53776 18.5639 5.67007 20.8526 5.4512 21.53L5.43362 21.5844L8.08839 28.245H18.0203L32.4448 19.1757C32.7408 18.9896 32.9009 18.6551 32.8627 18.3029Z" fill="#F9D298"/>
<path d="M9.09464 29.7855L6.22777 31.3496C5.67543 31.6509 4.98326 31.4336 4.7023 30.8706L0.986264 23.4256C0.719393 22.8909 0.923495 22.2409 1.44808 21.9548L4.31495 20.3907C4.86729 20.0894 5.55946 20.3067 5.84042 20.8697L9.55645 28.3147C9.82333 28.8493 9.61922 29.4994 9.09464 29.7855Z" fill="#4C97E3"/>
<path d="M20.9635 4.77788C18.0842 -1.71894 6.9152 6.08038 20.9168 15.1117L20.9095 15.0787C35.5897 6.04735 23.3661 -1.51422 20.9635 4.77788Z" fill="#FF2459"/>
</g>
<defs>
<clipPath id="clip0_1_300">
<rect width="32" height="32" fill="white" transform="translate(0.869141 0.932617)"/>
</clipPath>
</defs>
</svg>
