<svg width="22" height="22" viewBox="0 0 22 22" fill="none" xmlns="http://www.w3.org/2000/svg">
<path fill-rule="evenodd" clip-rule="evenodd" d="M10.5299 3.2436C6.50503 3.2436 3.2436 6.50244 3.2436 10.5207C3.2436 14.539 6.50503 17.7978 10.5299 17.7978C12.5379 17.7978 14.3549 16.9875 15.6735 15.675C16.998 14.3566 17.8162 12.5347 17.8162 10.5207C17.8162 6.50244 14.5548 3.2436 10.5299 3.2436ZM1.83334 10.5207C1.83334 5.72204 5.7277 1.83334 10.5299 1.83334C15.3321 1.83334 19.2265 5.72204 19.2265 10.5207C19.2265 12.6706 18.444 14.6389 17.1493 16.1554L19.9599 18.9627C20.2354 19.2379 20.2356 19.6843 19.9604 19.9599C19.6852 20.2354 19.2388 20.2356 18.9632 19.9604L16.15 17.1505C14.6346 18.4335 12.6722 19.2081 10.5299 19.2081C5.7277 19.2081 1.83334 15.3194 1.83334 10.5207Z" fill="#5D646F"/>
</svg>
